<svg width="946" height="814" viewBox="0 0 946 814" fill="none" xmlns="http://www.w3.org/2000/svg">
<g id="Document">
<g id="blob 1">
<path id="Vector" d="M683.485 223.036C751.124 284.493 814.979 345.543 805.519 398.86C796.059 451.77 712.811 496.947 645.172 555.962C577.533 614.977 525.03 688.237 445.093 712.25C364.683 736.263 256.366 711.436 179.267 652.421C102.641 593.406 56.76 500.203 85.14 431.827C113.993 363.451 217.58 319.902 294.679 258.445C371.778 196.988 422.389 117.623 483.406 108.669C544.423 99.715 615.373 161.579 683.485 223.036Z" fill="url(#paint0_linear)"/>
</g>
<g id="undraw_secure_data_0rwp 1">
<g id="TheDots">
<path id="Vector_2" opacity="0.5" d="M512.182 148.756C511.469 148.452 510.895 147.901 510.57 147.209C510.244 146.517 510.19 145.732 510.418 145.004C510.455 144.892 510.479 144.776 510.488 144.658C510.5 144.332 510.406 144.011 510.221 143.74C510.036 143.469 509.768 143.262 509.456 143.148C509.143 143.034 508.803 143.019 508.481 143.106C508.16 143.192 507.874 143.375 507.665 143.629C507.594 143.723 507.535 143.825 507.489 143.933C507.178 144.631 506.616 145.193 505.909 145.512C505.202 145.83 504.4 145.883 503.656 145.66C503.542 145.624 503.424 145.601 503.304 145.591C502.971 145.58 502.642 145.672 502.366 145.853C502.089 146.035 501.877 146.297 501.761 146.602C501.644 146.908 501.629 147.242 501.718 147.557C501.806 147.871 501.993 148.151 502.252 148.355C502.348 148.425 502.452 148.483 502.563 148.528C503.276 148.832 503.85 149.383 504.175 150.075C504.501 150.767 504.555 151.552 504.327 152.28C504.29 152.392 504.266 152.508 504.256 152.626C504.245 152.952 504.338 153.273 504.524 153.544C504.709 153.815 504.977 154.023 505.289 154.136C505.601 154.25 505.942 154.265 506.264 154.179C506.585 154.092 506.87 153.909 507.079 153.655C507.15 153.561 507.209 153.459 507.256 153.351C507.567 152.653 508.129 152.091 508.836 151.772C509.543 151.454 510.344 151.401 511.088 151.624C511.203 151.66 511.321 151.684 511.441 151.693C511.774 151.704 512.102 151.613 512.379 151.431C512.656 151.25 512.868 150.988 512.984 150.682C513.1 150.376 513.115 150.042 513.027 149.728C512.939 149.413 512.752 149.134 512.493 148.929C512.397 148.86 512.292 148.802 512.182 148.756Z" fill="#4D8AF0"/>
<path id="Vector_3" opacity="0.9" d="M197.521 607.706C196.808 607.402 196.234 606.851 195.909 606.159C195.583 605.467 195.529 604.682 195.757 603.954C195.794 603.842 195.818 603.726 195.827 603.608C195.839 603.282 195.745 602.961 195.56 602.69C195.375 602.419 195.107 602.212 194.795 602.098C194.482 601.984 194.142 601.969 193.82 602.055C193.499 602.142 193.213 602.325 193.004 602.579C192.934 602.673 192.874 602.775 192.828 602.883C192.517 603.581 191.955 604.143 191.248 604.462C190.541 604.78 189.74 604.833 188.996 604.61C188.881 604.574 188.763 604.55 188.643 604.541C188.31 604.53 187.982 604.622 187.705 604.803C187.428 604.984 187.216 605.247 187.1 605.552C186.984 605.858 186.968 606.192 187.057 606.506C187.145 606.821 187.332 607.1 187.591 607.305C187.687 607.375 187.792 607.433 187.902 607.478C188.615 607.782 189.189 608.333 189.514 609.025C189.84 609.717 189.894 610.502 189.666 611.23C189.629 611.342 189.605 611.458 189.595 611.576C189.584 611.902 189.678 612.223 189.863 612.494C190.048 612.765 190.316 612.972 190.628 613.086C190.94 613.2 191.281 613.215 191.603 613.129C191.924 613.042 192.209 612.859 192.419 612.605C192.489 612.511 192.549 612.409 192.595 612.301C192.906 611.603 193.468 611.041 194.175 610.722C194.882 610.404 195.683 610.351 196.427 610.574C196.542 610.61 196.66 610.634 196.78 610.643C197.113 610.654 197.441 610.562 197.718 610.381C197.995 610.2 198.207 609.937 198.323 609.632C198.439 609.326 198.454 608.992 198.366 608.678C198.278 608.363 198.091 608.084 197.832 607.879C197.736 607.809 197.631 607.751 197.521 607.706Z" fill="#FFEB3C"/>
<path id="Vector_4" opacity="0.8" d="M220.62 220.511C219.906 220.207 219.332 219.656 219.007 218.964C218.682 218.272 218.628 217.487 218.855 216.759C218.893 216.647 218.916 216.531 218.926 216.414C218.937 216.088 218.844 215.766 218.658 215.495C218.473 215.224 218.205 215.017 217.893 214.903C217.581 214.789 217.24 214.774 216.919 214.861C216.597 214.947 216.312 215.13 216.103 215.384C216.032 215.478 215.973 215.58 215.926 215.688C215.615 216.386 215.053 216.948 214.346 217.267C213.64 217.586 212.838 217.638 212.094 217.416C211.979 217.379 211.861 217.356 211.741 217.346C211.408 217.335 211.08 217.427 210.803 217.608C210.526 217.79 210.315 218.052 210.198 218.358C210.082 218.663 210.067 218.997 210.155 219.312C210.243 219.626 210.43 219.906 210.689 220.11C210.786 220.18 210.89 220.238 211 220.283C211.713 220.588 212.287 221.138 212.613 221.83C212.938 222.522 212.992 223.307 212.764 224.035C212.727 224.147 212.703 224.263 212.694 224.381C212.682 224.707 212.776 225.028 212.961 225.299C213.147 225.57 213.414 225.778 213.727 225.891C214.039 226.005 214.38 226.02 214.701 225.934C215.022 225.848 215.308 225.664 215.517 225.411C215.588 225.316 215.647 225.214 215.693 225.107C216.004 224.408 216.566 223.846 217.273 223.528C217.98 223.209 218.782 223.156 219.526 223.379C219.64 223.416 219.759 223.439 219.879 223.448C220.212 223.459 220.54 223.368 220.817 223.186C221.093 223.005 221.305 222.743 221.421 222.437C221.538 222.131 221.553 221.797 221.465 221.483C221.377 221.168 221.19 220.889 220.93 220.684C220.834 220.615 220.73 220.557 220.62 220.511Z" fill="#3935FD"/>
<path id="Vector_5" d="M197.541 431.312C196.828 431.008 196.254 430.458 195.928 429.766C195.603 429.074 195.549 428.289 195.776 427.56C195.814 427.448 195.837 427.332 195.847 427.215C195.858 426.889 195.765 426.567 195.58 426.296C195.394 426.025 195.126 425.818 194.814 425.704C194.502 425.59 194.161 425.576 193.84 425.662C193.518 425.748 193.233 425.931 193.024 426.185C192.953 426.279 192.894 426.381 192.847 426.489C192.537 427.188 191.974 427.75 191.268 428.068C190.561 428.387 189.759 428.44 189.015 428.217C188.901 428.18 188.782 428.157 188.662 428.148C188.329 428.136 188.001 428.228 187.724 428.409C187.447 428.591 187.236 428.853 187.119 429.159C187.003 429.464 186.988 429.798 187.076 430.113C187.164 430.427 187.351 430.707 187.611 430.912C187.707 430.981 187.811 431.039 187.921 431.084C188.634 431.389 189.208 431.939 189.534 432.631C189.859 433.323 189.913 434.108 189.686 434.837C189.648 434.949 189.624 435.065 189.615 435.182C189.603 435.508 189.697 435.829 189.882 436.101C190.068 436.372 190.335 436.579 190.648 436.693C190.96 436.807 191.301 436.821 191.622 436.735C191.943 436.649 192.229 436.466 192.438 436.212C192.509 436.118 192.568 436.015 192.615 435.908C192.925 435.209 193.488 434.647 194.194 434.329C194.901 434.01 195.703 433.957 196.447 434.18C196.561 434.217 196.68 434.24 196.8 434.249C197.133 434.26 197.461 434.169 197.738 433.987C198.015 433.806 198.226 433.544 198.343 433.238C198.459 432.932 198.474 432.599 198.386 432.284C198.298 431.969 198.111 431.69 197.851 431.485C197.755 431.416 197.651 431.358 197.541 431.312Z" fill="#3AD29F"/>
<path id="Vector_6" opacity="0.5" d="M356.418 167.849C359.279 167.849 361.598 165.578 361.598 162.777C361.598 159.976 359.279 157.705 356.418 157.705C353.557 157.705 351.237 159.976 351.237 162.777C351.237 165.578 353.557 167.849 356.418 167.849Z" fill="#F55F44"/>
<path id="Vector_7" opacity="0.5" d="M123.18 367.442C126.041 367.442 128.361 365.171 128.361 362.37C128.361 359.569 126.041 357.298 123.18 357.298C120.319 357.298 118 359.569 118 362.37C118 365.171 120.319 367.442 123.18 367.442Z" fill="#F55F44"/>
<path id="Vector_8" opacity="0.6" d="M727.62 231.243C730.481 231.243 732.8 228.972 732.8 226.171C732.8 223.369 730.481 221.099 727.62 221.099C724.759 221.099 722.44 223.369 722.44 226.171C722.44 228.972 724.759 231.243 727.62 231.243Z" fill="#F55F44"/>
<path id="Vector_9" opacity="0.9" d="M698.267 382.534C701.128 382.534 703.447 380.263 703.447 377.462C703.447 374.66 701.128 372.39 698.267 372.39C695.406 372.39 693.086 374.66 693.086 377.462C693.086 380.263 695.406 382.534 698.267 382.534Z" fill="#1E3B6B"/>
<path id="Vector_10" opacity="0.5" d="M144.594 248.421C147.455 248.421 149.774 246.151 149.774 243.349C149.774 240.548 147.455 238.277 144.594 238.277C141.733 238.277 139.413 240.548 139.413 243.349C139.413 246.151 141.733 248.421 144.594 248.421Z" fill="#D200BD"/>
<path id="Vector_11" opacity="0.5" d="M720.23 597.394C723.092 597.394 725.411 595.123 725.411 592.322C725.411 589.521 723.092 587.25 720.23 587.25C717.369 587.25 715.05 589.521 715.05 592.322C715.05 595.123 717.369 597.394 720.23 597.394Z" fill="#D200BD"/>
<path id="Vector_12" d="M760.82 445.879C763.681 445.879 766 443.608 766 440.807C766 438.006 763.681 435.735 760.82 435.735C757.959 435.735 755.639 438.006 755.639 440.807C755.639 443.608 757.959 445.879 760.82 445.879Z" fill="#AC367D"/>
</g>
<g id="Report">
<g id="Group" opacity="0.5">
<path id="Vector_13" opacity="0.5" d="M564.466 202.503H232.971V638.631H564.466V202.503Z" fill="url(#paint1_linear)"/>
</g>
<path id="Vector_14" d="M558.425 208.418H237.29V629.33H558.425V208.418Z" fill="#F2F2F2"/>
<path id="Vector_15" d="M372.82 226.171H262.324V229.55H372.82V226.171Z" fill="#E0E0E0"/>
<path id="Vector_16" opacity="0.7" d="M372.82 241.38H262.324V244.759H372.82V241.38Z" fill="#496CEF"/>
<path id="Vector_17" d="M499.718 226.171H389.222V229.55H499.718V226.171Z" fill="#E0E0E0"/>
<path id="Vector_18" d="M516.981 322.526H406.485V325.905H516.981V322.526Z" fill="#E0E0E0"/>
<path id="Vector_19" d="M519.572 331.82H409.076V335.199H519.572V331.82Z" fill="#E0E0E0"/>
<path id="Vector_20" d="M524.752 341.114H414.256V344.493H524.752V341.114Z" fill="#E0E0E0"/>
<path id="Vector_21" d="M516.981 472.124H406.485V475.503H516.981V472.124Z" fill="#E0E0E0"/>
<path id="Vector_22" d="M519.572 481.425H409.076V484.804H519.572V481.425Z" fill="#E0E0E0"/>
<path id="Vector_23" d="M524.752 490.719H414.256V494.098H524.752V490.719Z" fill="#E0E0E0"/>
<g id="Group_2" opacity="0.5">
<path id="Vector_24" opacity="0.5" d="M380.591 287.871H263.185V404.508H380.591V287.871Z" fill="url(#paint2_linear)"/>
</g>
<path id="Vector_25" d="M379.475 290.407H263.926V401.972H379.475V290.407Z" fill="#F5F5F5"/>
<g id="Group_3" opacity="0.5">
<path id="Vector_26" opacity="0.5" d="M375.77 297.166H267.998V369.854H375.77V297.166Z" fill="url(#paint3_linear)"/>
</g>
<path id="&#60;Rectangle&#62;" d="M375.029 298.009H268.739V368.161H375.029V298.009Z" fill="white"/>
<g id="Group_4">
<path id="Vector_27" opacity="0.4" d="M259.734 365.631L286.497 325.055L297.718 342.807L321.884 318.297L342.606 342.807L360.737 306.467L407.354 379.155L256.282 374.082L259.734 365.631Z" fill="#496CEF"/>
<path id="Vector_28" opacity="0.4" d="M280.448 315.761C284.74 315.761 288.219 312.355 288.219 308.153C288.219 303.951 284.74 300.545 280.448 300.545C276.157 300.545 272.678 303.951 272.678 308.153C272.678 312.355 276.157 315.761 280.448 315.761Z" fill="#496CEF"/>
</g>
<g id="Group_5" opacity="0.5">
<path id="Vector_29" opacity="0.5" d="M380.591 437.469H263.185V554.106H380.591V437.469Z" fill="url(#paint4_linear)"/>
</g>
<path id="Vector_30" d="M379.475 440.005H263.926V551.57H379.475V440.005Z" fill="#F5F5F5"/>
<g id="Group_6" opacity="0.5">
<path id="Vector_31" opacity="0.5" d="M375.77 446.77H267.998V519.458H375.77V446.77Z" fill="url(#paint5_linear)"/>
</g>
<path id="&#60;Rectangle&#62;_2" d="M375.029 447.613H268.739V517.765H375.029V447.613Z" fill="white"/>
<g id="Group_7">
<path id="Vector_32" opacity="0.4" d="M259.734 515.229L286.497 474.66L297.718 492.412L321.884 467.902L342.606 492.412L360.737 456.065L407.354 528.752L256.282 523.68L259.734 515.229Z" fill="#BDBDBD"/>
<path id="Vector_33" opacity="0.4" d="M280.448 465.366C284.74 465.366 288.219 461.959 288.219 457.758C288.219 453.556 284.74 450.149 280.448 450.149C276.157 450.149 272.678 453.556 272.678 457.758C272.678 461.959 276.157 465.366 280.448 465.366Z" fill="#BDBDBD"/>
</g>
<g id="Group_8" opacity="0.5">
<path id="Vector_34" opacity="0.5" d="M368.467 180.954L281.641 608.716L606.778 671.98L693.604 244.217L368.467 180.954Z" fill="url(#paint6_linear)"/>
</g>
<path id="Vector_35" d="M371.517 187.581L287.721 600.419L602.696 661.706L686.492 248.868L371.517 187.581Z" fill="white"/>
<path id="Vector_36" d="M614.07 254.584L390.54 211.091L389.867 214.405L613.398 257.899L614.07 254.584Z" fill="#E0E0E0"/>
<path id="Vector_37" d="M550.464 567.954L326.933 524.461L326.261 527.775L549.791 571.268L550.464 567.954Z" fill="#E0E0E0"/>
<path id="Vector_38" d="M495.791 577.139L323.064 543.53L322.391 546.844L495.118 580.453L495.791 577.139Z" fill="#E0E0E0"/>
<path id="Vector_39" opacity="0.7" d="M383.549 575.115L319.198 562.594L318.526 565.908L382.876 578.429L383.549 575.115Z" fill="#496CEF"/>
<path id="Vector_40" opacity="0.7" d="M498.437 251.913L386.675 230.167L386.002 233.482L497.764 255.228L498.437 251.913Z" fill="#496CEF"/>
<path id="Vector_41" d="M584.323 288.44L382.805 249.23L382.133 252.544L583.65 291.755L584.323 288.44Z" fill="#E0E0E0"/>
<path id="Vector_42" opacity="0.7" d="M428.045 277.854L378.938 268.299L378.265 271.613L427.372 281.168L428.045 277.854Z" fill="#3AD29F"/>
<path id="Vector_43" d="M598.591 330.856L375.06 287.363L374.388 290.677L597.918 334.17L598.591 330.856Z" fill="#E0E0E0"/>
<g id="Group_9" opacity="0.5">
<path id="Vector_44" opacity="0.5" d="M394.765 367.897L371.881 480.643L572.546 519.688L595.431 406.942L394.765 367.897Z" fill="url(#paint7_linear)"/>
</g>
<path id="Vector_45" d="M594.036 407.529L395.904 368.978L373.524 479.236L571.656 517.787L594.036 407.529Z" fill="white"/>
<path id="Vector_46" d="M433.822 437.439L409.268 432.662L401.721 469.843L426.275 474.62L433.822 437.439Z" fill="#F55F44"/>
<path id="Vector_47" d="M594.721 349.923L371.191 306.43L370.518 309.744L594.049 353.237L594.721 349.923Z" fill="#E0E0E0"/>
<path id="Vector_48" d="M522.508 418.63L497.954 413.853L483.591 484.613L508.145 489.391L522.508 418.63Z" fill="#4FC980"/>
<path id="Vector_49" d="M476.288 430.425L451.735 425.648L441.328 476.916L465.882 481.694L476.288 430.425Z" fill="#FDD835"/>
<path id="Vector_50" d="M565.885 439.968L541.331 435.191L529.385 494.048L553.939 498.825L565.885 439.968Z" fill="#4D8AF0"/>
</g>
<g id="Lock">
<path id="Vector_51" d="M520.118 587.158C520.118 581.117 522.718 575.322 527.344 571.051C531.971 566.779 538.246 564.379 544.789 564.379C551.333 564.379 557.608 566.779 562.235 571.051C566.861 575.322 569.461 581.117 569.461 587.158V601.736H576.367V587.158C576.367 579.425 573.04 572.008 567.117 566.54C561.195 561.072 553.163 558 544.787 558C536.412 558 528.379 561.072 522.457 566.54C516.535 572.008 513.208 579.425 513.208 587.158V601.736H520.114L520.118 587.158Z" fill="url(#paint8_linear)"/>
<path id="Vector_52" d="M521.104 586.845C521.104 581.045 523.6 575.482 528.041 571.381C532.483 567.28 538.508 564.976 544.789 564.976C551.071 564.976 557.096 567.28 561.537 571.381C565.979 575.482 568.475 581.045 568.475 586.845V600.842H575.105V586.845C575.105 579.421 571.911 572.302 566.226 567.052C560.54 561.803 552.83 558.854 544.789 558.854C536.749 558.854 529.038 561.803 523.353 567.052C517.668 572.302 514.474 579.421 514.474 586.845V600.842H521.104V586.845Z" fill="#847C7C"/>
<g id="Vector_53" filter="url(#filter0_d)">
<path d="M586 614.969C586 606.685 579.284 599.969 571 599.969H518.579C510.295 599.969 503.579 606.685 503.579 614.969V647.077C503.579 655.361 510.295 662.077 518.579 662.077H571C579.284 662.077 586 655.361 586 647.077V614.969Z" fill="#E5E5E5"/>
<path d="M571 600.469C579.008 600.469 585.5 606.961 585.5 614.969V647.077C585.5 655.085 579.008 661.577 571 661.577H518.579C510.571 661.577 504.079 655.085 504.079 647.077V614.969C504.079 606.961 510.571 600.469 518.579 600.469H571Z" stroke="#574C4C"/>
</g>
<path id="Vector_54" d="M586 612.213H503.579V649.825H586V612.213Z" fill="#0B84C8"/>
<path id="Vector_55" d="M550.832 623.906C550.833 622.995 550.592 622.097 550.132 621.292C549.671 620.487 549.003 619.798 548.188 619.286C547.372 618.774 546.433 618.454 545.452 618.354C544.472 618.254 543.48 618.377 542.563 618.713C541.646 619.048 540.831 619.586 540.191 620.279C539.551 620.972 539.105 621.8 538.891 622.689C538.677 623.578 538.702 624.502 538.964 625.38C539.226 626.258 539.717 627.064 540.393 627.726V639.632C540.393 640.708 540.857 641.741 541.681 642.502C542.505 643.263 543.624 643.691 544.789 643.691C545.955 643.691 547.073 643.263 547.898 642.502C548.722 641.741 549.185 640.708 549.185 639.632V627.739C550.247 626.704 550.836 625.331 550.832 623.906Z" fill="url(#paint9_linear)"/>
<path id="Vector_56" opacity="0.2" d="M550 624.899C550.001 624.114 549.793 623.34 549.396 622.646C548.999 621.951 548.423 621.357 547.72 620.916C547.016 620.474 546.206 620.198 545.361 620.112C544.515 620.025 543.66 620.132 542.869 620.421C542.078 620.711 541.376 621.175 540.825 621.772C540.273 622.37 539.888 623.083 539.703 623.85C539.519 624.617 539.541 625.414 539.766 626.171C539.992 626.928 540.416 627.623 540.999 628.194V638.458C540.999 639.386 541.399 640.277 542.11 640.933C542.82 641.589 543.784 641.958 544.789 641.958C545.795 641.958 546.759 641.589 547.469 640.933C548.18 640.277 548.579 639.386 548.579 638.458V628.194C549.492 627.304 550 626.125 550 624.899Z" fill="black"/>
</g>
</g>
</g>
<defs>
<filter id="filter0_d" x="499.579" y="599.969" width="90.4212" height="70.1076" filterUnits="userSpaceOnUse" color-interpolation-filters="sRGB">
<feFlood flood-opacity="0" result="BackgroundImageFix"/>
<feColorMatrix in="SourceAlpha" type="matrix" values="0 0 0 0 0 0 0 0 0 0 0 0 0 0 0 0 0 0 127 0"/>
<feOffset dy="4"/>
<feGaussianBlur stdDeviation="2"/>
<feColorMatrix type="matrix" values="0 0 0 0 0 0 0 0 0 0 0 0 0 0 0 0 0 0 0.25 0"/>
<feBlend mode="normal" in2="BackgroundImageFix" result="effect1_dropShadow"/>
<feBlend mode="normal" in="SourceGraphic" in2="effect1_dropShadow" result="shape"/>
</filter>
<linearGradient id="paint0_linear" x1="321" y1="541" x2="806" y2="243.5" gradientUnits="userSpaceOnUse">
<stop stop-color="#5F7978"/>
<stop offset="1" stop-color="#6ADCCE" stop-opacity="0.71"/>
</linearGradient>
<linearGradient id="paint1_linear" x1="398.715" y1="638.631" x2="398.715" y2="202.503" gradientUnits="userSpaceOnUse">
<stop stop-color="#808080" stop-opacity="0.25"/>
<stop offset="0.54" stop-color="#808080" stop-opacity="0.12"/>
<stop offset="1" stop-color="#808080" stop-opacity="0.1"/>
</linearGradient>
<linearGradient id="paint2_linear" x1="34179.3" y1="44427.8" x2="34179.3" y2="24740.7" gradientUnits="userSpaceOnUse">
<stop stop-color="#808080" stop-opacity="0.25"/>
<stop offset="0.54" stop-color="#808080" stop-opacity="0.12"/>
<stop offset="1" stop-color="#808080" stop-opacity="0.1"/>
</linearGradient>
<linearGradient id="paint3_linear" x1="31401.1" y1="24159.9" x2="31401.1" y2="16513.8" gradientUnits="userSpaceOnUse">
<stop stop-color="#808080" stop-opacity="0.25"/>
<stop offset="0.54" stop-color="#808080" stop-opacity="0.12"/>
<stop offset="1" stop-color="#808080" stop-opacity="0.1"/>
</linearGradient>
<linearGradient id="paint4_linear" x1="34179.3" y1="69829.2" x2="34179.3" y2="50140.9" gradientUnits="userSpaceOnUse">
<stop stop-color="#808080" stop-opacity="0.25"/>
<stop offset="0.54" stop-color="#808080" stop-opacity="0.12"/>
<stop offset="1" stop-color="#808080" stop-opacity="0.1"/>
</linearGradient>
<linearGradient id="paint5_linear" x1="31401.1" y1="40046.4" x2="31401.1" y2="32400.4" gradientUnits="userSpaceOnUse">
<stop stop-color="#808080" stop-opacity="0.25"/>
<stop offset="0.54" stop-color="#808080" stop-opacity="0.12"/>
<stop offset="1" stop-color="#808080" stop-opacity="0.1"/>
</linearGradient>
<linearGradient id="paint6_linear" x1="244571" y1="299381" x2="283726" y2="98148.7" gradientUnits="userSpaceOnUse">
<stop stop-color="#808080" stop-opacity="0.25"/>
<stop offset="0.54" stop-color="#808080" stop-opacity="0.12"/>
<stop offset="1" stop-color="#808080" stop-opacity="0.1"/>
</linearGradient>
<linearGradient id="paint7_linear" x1="55619" y1="124159" x2="61988.2" y2="91425.3" gradientUnits="userSpaceOnUse">
<stop stop-color="#808080" stop-opacity="0.25"/>
<stop offset="0.54" stop-color="#808080" stop-opacity="0.12"/>
<stop offset="1" stop-color="#808080" stop-opacity="0.1"/>
</linearGradient>
<linearGradient id="paint8_linear" x1="49674.4" y1="30029.9" x2="49674.4" y2="25449.4" gradientUnits="userSpaceOnUse">
<stop stop-color="#808080" stop-opacity="0.25"/>
<stop offset="0.54" stop-color="#808080" stop-opacity="0.12"/>
<stop offset="1" stop-color="#808080" stop-opacity="0.1"/>
</linearGradient>
<linearGradient id="paint9_linear" x1="9945.02" y1="20265.7" x2="9945.02" y2="18724.4" gradientUnits="userSpaceOnUse">
<stop stop-color="#808080" stop-opacity="0.25"/>
<stop offset="0.54" stop-color="#808080" stop-opacity="0.12"/>
<stop offset="1" stop-color="#808080" stop-opacity="0.1"/>
</linearGradient>
</defs>
</svg>
