<svg width="1440" height="320" viewBox="0 0 1440 320" fill="none" xmlns="http://www.w3.org/2000/svg">
<path d="M0 320L48 304C96 288 192 256 288 218.7C384 181 480 139 576 144C672 149 768 203 864 234.7C960 267 1056 277 1152 266.7C1248 256 1344 224 1392 208L1440 192V0H1392C1344 0 1248 0 1152 0C1056 0 960 0 864 0C768 0 672 0 576 0C480 0 384 0 288 0C192 0 96 0 48 0H0V320Z" fill="url(#paint0_linear)"/>
<defs>
<linearGradient id="paint0_linear" x1="109.5" y1="193.5" x2="1440" y2="113" gradientUnits="userSpaceOnUse">
<stop stop-color="#1b5a8b"/>
<stop offset="1" stop-color="#2099A8" stop-opacity="0.83"/>
</linearGradient>
</defs>
</svg>
